<svg width="326" height="75" viewBox="0 0 326 75" fill="none" xmlns="http://www.w3.org/2000/svg">
<mask id="mask0_105_804" style="mask-type:alpha" maskUnits="userSpaceOnUse" x="0" y="0" width="75" height="75">
<path d="M49.2701 74.0949C46.1701 74.0949 42.9701 73.3949 40.0701 72.1949C39.3701 71.8949 38.6701 71.5949 37.9701 71.1949C37.7701 71.0949 37.6701 70.9949 37.4701 70.8949C37.3701 70.7949 37.1701 70.6949 36.9701 70.6949C36.5701 70.8949 36.2701 71.0949 35.8701 71.1949C34.4701 71.8949 32.9701 72.4949 31.4701 72.8949C28.6701 73.7949 25.6701 74.0949 22.6701 73.8949C20.3701 73.6949 18.0701 73.1949 15.9701 72.2949C11.7701 70.5949 8.07009 67.7949 5.27009 64.1949C2.47009 60.4949 0.670092 55.9949 0.170092 51.2949C-0.429908 46.0949 0.570093 40.6949 2.97009 36.0949C4.17009 33.7949 5.57009 31.6949 7.37009 29.8949C8.27009 28.9949 9.17009 28.0949 10.1701 27.3949C10.6701 26.9949 11.1701 26.6949 11.6701 26.2949C11.8701 26.0949 12.1701 25.9949 12.4701 25.7949C12.4701 25.6949 12.4701 25.4949 12.4701 25.2949C12.4701 25.0949 12.4701 24.9949 12.4701 24.7949C12.6701 20.0949 14.0701 15.3949 16.6701 11.3949C19.1701 7.59487 22.5701 4.39487 26.6701 2.39487C30.8701 0.394872 35.6701 -0.405128 40.2701 0.194872C44.7701 0.794872 49.0701 2.79487 52.5701 5.69487C56.0701 8.69487 58.7701 12.6949 60.2701 17.0949C61.0701 19.3949 61.5701 21.7949 61.6701 24.1949C61.6701 24.4949 61.6701 24.7949 61.6701 25.0949C61.6701 25.2949 61.6701 25.3949 61.6701 25.5949V25.8949C61.6701 25.9949 61.8701 25.9949 61.9701 26.0949C62.4701 26.3949 62.9701 26.7949 63.4701 27.1949C64.4701 27.8949 65.3701 28.7949 66.2701 29.5949C69.8701 33.2949 72.4701 37.9949 73.4701 42.9949C74.4701 47.8949 74.0701 53.0949 72.2701 57.7949C70.6701 62.0949 67.8701 65.8949 64.2701 68.7949C60.6701 71.6949 56.3701 73.4949 51.7701 73.9949C50.9701 74.0949 50.1701 74.0949 49.2701 74.0949Z" fill="white"/>
</mask>
<g mask="url(#mask0_105_804)">
<rect x="-0.363525" y="-0.363647" width="8.63636" height="8.63636" fill="#EB7535"/>
<rect x="8.27271" y="-0.363647" width="8.63636" height="8.63636" fill="#EB7535"/>
<rect x="16.9092" y="-0.363647" width="8.63636" height="8.63636" fill="#8C3932"/>
<rect x="25.5454" y="-0.363647" width="8.63636" height="8.63636" fill="#8C3932"/>
<rect x="34.1819" y="-0.363647" width="8.63636" height="8.63636" fill="#D84826"/>
<rect x="42.8181" y="-0.363647" width="8.63636" height="8.63636" fill="#8C3932"/>
<rect x="51.4546" y="-0.363647" width="8.63636" height="8.63636" fill="#8C3932"/>
<rect x="60.0908" y="-0.363647" width="8.63636" height="8.63636" fill="#EB7535"/>
<rect x="68.7273" y="-0.363647" width="8.63636" height="8.63636" fill="#EB7535"/>
<rect x="-0.363525" y="8.27264" width="8.63636" height="8.63636" fill="#8C3932"/>
<rect x="8.27271" y="8.27264" width="8.63636" height="8.63636" fill="#8C3932"/>
<rect x="16.9092" y="8.27264" width="8.63636" height="8.63636" fill="#8C3932"/>
<rect x="25.5454" y="8.27264" width="8.63636" height="8.63636" fill="#EB7535"/>
<rect x="34.1819" y="8.27264" width="8.63636" height="8.63636" fill="#8C3932"/>
<rect x="42.8181" y="8.27264" width="8.63636" height="8.63636" fill="#EB7535"/>
<rect x="51.4546" y="8.27264" width="8.63636" height="8.63636" fill="#8C3932"/>
<rect x="60.0908" y="8.27264" width="8.63636" height="8.63636" fill="#8C3932"/>
<rect x="68.7273" y="8.27264" width="8.63636" height="8.63636" fill="#D84826"/>
<rect x="-0.363525" y="16.9091" width="8.63636" height="8.63636" fill="#EB7535"/>
<rect x="8.27271" y="16.9091" width="8.63636" height="8.63636" fill="#8C3932"/>
<rect x="16.9092" y="16.9091" width="8.63636" height="8.63636" fill="#EB7535"/>
<rect x="25.5454" y="16.9091" width="8.63636" height="8.63636" fill="#D84826"/>
<rect x="34.1819" y="16.9091" width="8.63636" height="8.63636" fill="#EB7535"/>
<rect x="42.8181" y="16.9091" width="8.63636" height="8.63636" fill="#D84826"/>
<rect x="51.4546" y="16.9091" width="8.63636" height="8.63636" fill="#EB7535"/>
<rect x="60.0908" y="16.9091" width="8.63636" height="8.63636" fill="#8C3932"/>
<rect x="68.7273" y="16.9091" width="8.63636" height="8.63636" fill="#8C3932"/>
<rect x="-0.363525" y="25.5455" width="8.63636" height="8.63636" fill="#8C3932"/>
<rect x="8.27271" y="25.5455" width="8.63636" height="8.63636" fill="#8C3932"/>
<rect x="16.9092" y="25.5455" width="8.63636" height="8.63636" fill="#D84826"/>
<rect x="25.5454" y="25.5455" width="8.63636" height="8.63636" fill="#8C3932"/>
<rect x="34.1819" y="25.5455" width="8.63636" height="8.63636" fill="#D84826"/>
<rect x="42.8181" y="25.5455" width="8.63636" height="8.63636" fill="#8C3932"/>
<rect x="51.4546" y="25.5455" width="8.63636" height="8.63636" fill="#EB7535"/>
<rect x="60.0908" y="25.5455" width="8.63636" height="8.63636" fill="#8C3932"/>
<rect x="68.7273" y="25.5455" width="8.63636" height="8.63636" fill="#8C3932"/>
<rect x="-0.363525" y="34.1818" width="8.63636" height="8.63636" fill="#D84826"/>
<rect x="8.27271" y="34.1818" width="8.63636" height="8.63636" fill="#D84826"/>
<rect x="16.9092" y="34.1818" width="8.63636" height="8.63636" fill="#D84826"/>
<rect x="25.5454" y="34.1818" width="8.63636" height="8.63636" fill="#EB7535"/>
<rect x="34.1819" y="34.1818" width="8.63636" height="8.63636" fill="#8C3932"/>
<rect x="42.8181" y="34.1818" width="8.63636" height="8.63636" fill="#D84826"/>
<rect x="51.4546" y="34.1818" width="8.63636" height="8.63636" fill="#8C3932"/>
<rect x="60.0908" y="34.1818" width="8.63636" height="8.63636" fill="#EB7535"/>
<rect x="68.7273" y="34.1818" width="8.63636" height="8.63636" fill="#8C3932"/>
<rect x="-0.363525" y="42.8182" width="8.63636" height="8.63636" fill="#8C3932"/>
<rect x="8.27271" y="42.8182" width="8.63636" height="8.63636" fill="#D84826"/>
<rect x="16.9092" y="42.8182" width="8.63636" height="8.63636" fill="#8C3932"/>
<rect x="25.5454" y="42.8182" width="8.63636" height="8.63636" fill="#EB7535"/>
<rect x="34.1819" y="42.8182" width="8.63636" height="8.63636" fill="#D84826"/>
<rect x="42.8181" y="42.8182" width="8.63636" height="8.63636" fill="#8C3932"/>
<rect x="51.4546" y="42.8182" width="8.63636" height="8.63636" fill="#D84826"/>
<rect x="60.0908" y="42.8182" width="8.63636" height="8.63636" fill="#D84826"/>
<rect x="68.7273" y="42.8182" width="8.63636" height="8.63636" fill="#8C3932"/>
<rect x="-0.363525" y="51.4545" width="8.63636" height="8.63636" fill="#8C3932"/>
<rect x="8.27271" y="51.4545" width="8.63636" height="8.63636" fill="#D84826"/>
<rect x="16.9092" y="51.4545" width="8.63636" height="8.63636" fill="#8C3932"/>
<rect x="25.5454" y="51.4545" width="8.63636" height="8.63636" fill="#EB7535"/>
<rect x="34.1819" y="51.4545" width="8.63636" height="8.63636" fill="#8C3932"/>
<rect x="42.8181" y="51.4545" width="8.63636" height="8.63636" fill="#D84826"/>
<rect x="51.4546" y="51.4545" width="8.63636" height="8.63636" fill="#8C3932"/>
<rect x="60.0908" y="51.4545" width="8.63636" height="8.63636" fill="#EB7535"/>
<rect x="68.7273" y="51.4545" width="8.63636" height="8.63636" fill="#8C3932"/>
<rect x="-0.363525" y="60.0909" width="8.63636" height="8.63636" fill="#8C3932"/>
<rect x="8.27271" y="60.0909" width="8.63636" height="8.63636" fill="#8C3932"/>
<rect x="16.9092" y="60.0909" width="8.63636" height="8.63636" fill="#D84826"/>
<rect x="25.5454" y="60.0909" width="8.63636" height="8.63636" fill="#8C3932"/>
<rect x="34.1819" y="60.0909" width="8.63636" height="8.63636" fill="#D84826"/>
<rect x="42.8181" y="60.0909" width="8.63636" height="8.63636" fill="#EB7535"/>
<rect x="51.4546" y="60.0909" width="8.63636" height="8.63636" fill="#D84826"/>
<rect x="60.0908" y="60.0909" width="8.63636" height="8.63636" fill="#8C3932"/>
<rect x="68.7273" y="60.0909" width="8.63636" height="8.63636" fill="#8C3932"/>
<rect x="-0.363525" y="68.7274" width="8.63636" height="8.63636" fill="#8C3932"/>
<rect x="8.27271" y="68.7274" width="8.63636" height="8.63636" fill="#8C3932"/>
<rect x="16.9092" y="68.7274" width="8.63636" height="8.63636" fill="#8C3932"/>
<rect x="25.5454" y="68.7274" width="8.63636" height="8.63636" fill="#8C3932"/>
<rect x="34.1819" y="68.7274" width="8.63636" height="8.63636" fill="#8C3932"/>
<rect x="42.8181" y="68.7274" width="8.63636" height="8.63636" fill="#8C3932"/>
<rect x="51.4546" y="68.7274" width="8.63636" height="8.63636" fill="#8C3932"/>
<rect x="60.0908" y="68.7274" width="8.63636" height="8.63636" fill="#8C3932"/>
<rect x="68.7273" y="68.7274" width="8.63636" height="8.63636" fill="#8C3932"/>
</g>
<path d="M105.474 25.862H98.0059V53.2216H105.474V46.4007L110.352 42.0186L119.84 53.2216H129.328L115.725 37.2173L128.376 25.862H118.202L105.474 37.4079V25.862Z" fill="#402421"/>
<path d="M151.873 33.102H144.633V42.9712C144.633 45.9815 142.956 47.5439 140.098 47.5439C137.355 47.5439 136.021 46.0959 136.021 43.0856V33.102H128.781V44.9527C128.781 50.478 132.516 53.6788 137.469 53.6788C140.556 53.6788 142.994 52.6119 144.633 50.9352V53.2216H151.873V33.102Z" fill="#402421"/>
<path d="M162.788 25.862H155.548V53.2216H162.788V25.862Z" fill="#402421"/>
<path d="M177.968 48.1154C175.263 48.1154 173.319 46.9723 172.634 44.9146H189.819V43.1618C189.819 37.4841 185.627 32.6447 177.93 32.6447C170.652 32.6447 165.47 37.103 165.47 43.1237C165.47 49.3729 170.576 53.6788 178.006 53.6788C183.189 53.6788 187.914 51.4306 189.514 47.5439L182.846 45.6005C182.046 47.239 180.14 48.1154 177.968 48.1154ZM177.778 38.0557C180.559 38.0557 182.198 39.5799 182.427 40.9517H172.748C173.586 39.0083 175.53 38.0557 177.778 38.0557Z" fill="#402421"/>
<path d="M192.518 53.2216H199.758V43.962C199.758 40.6849 201.511 38.9702 204.369 38.9702C207.112 38.9702 208.56 40.6849 208.56 43.9239V53.2216H215.8V41.4089C215.8 35.8837 211.952 32.6447 206.96 32.6447C203.873 32.6447 201.358 33.7117 199.758 35.3883V33.102H192.518V53.2216Z" fill="#402421"/>
<path d="M219.585 53.2216H233.989C243.973 53.2216 250.07 47.8868 250.07 39.5418C250.07 31.1967 243.973 25.862 233.989 25.862H219.585V53.2216ZM226.902 46.9342V32.1493H233.951C239.515 32.1493 242.639 35.0453 242.639 39.5418C242.639 44.0001 239.515 46.9342 233.989 46.9342H226.902Z" fill="#402421"/>
<path d="M260.068 53.6407C263.421 53.6407 266.279 52.8024 268.108 51.3544C269.403 53.1453 272.185 54.0218 276.758 53.2216V48.0392C274.852 48.4203 274.471 47.9249 274.471 46.9342V40.4182C274.471 35.1978 270.47 32.6447 263.878 32.6447C257.896 32.6447 253.475 35.1597 252.18 39.0083L258.924 40.3039C259.458 39.0464 261.058 38.0938 263.573 38.0938C266.469 38.0938 267.46 39.1988 267.46 40.3801V40.4944L259.953 41.0279C255.266 41.3327 251.38 43.1999 251.38 47.4677C251.38 51.3163 254.809 53.6407 260.068 53.6407ZM267.46 45.5243C267.46 47.4677 264.602 48.6489 261.706 48.6489C259.534 48.6489 258.391 48.0773 258.391 47.0104C258.391 45.9816 259.267 45.6005 260.906 45.4862L267.46 44.9527V45.5243Z" fill="#402421"/>
<path d="M292.523 53.4883L302.316 33.102H294.695L289.017 45.7148L283.339 33.102H275.223L284.711 52.5738L284.559 53.031C284.025 54.3266 282.882 54.6314 281.548 54.6314C280.557 54.6314 279.567 54.3266 278.69 53.9074L277.585 59.3946C278.69 59.8519 280.71 60.2329 282.425 60.2329C287.759 60.2329 290.236 58.2896 292.523 53.4883Z" fill="#402421"/>
<path d="M325.913 47.3533H314.367L325.837 38.3986V33.102H303.736V38.9702H315.51L303.583 47.9249V53.2216H325.913V47.3533Z" fill="#402421"/>
</svg>
